<?xml version="1.0" encoding="iso-8859-1"?>
<!-- Generator: Adobe Illustrator 19.0.0, SVG Export Plug-In . SVG Version: 6.00 Build 0)  -->
<svg version="1.1" id="Capa_1" xmlns="http://www.w3.org/2000/svg" xmlns:xlink="http://www.w3.org/1999/xlink" x="0px" y="0px"
	 viewBox="0 0 504 504" style="enable-background:new 0 0 504 504;" xml:space="preserve">
<path style="fill:green;" d="M389.6,221.2h-27.2c-1.6,0-3.2,1.6-4,3.2l-11.2,70.4c0,1.6,0.8,2.4,2.4,2.4H364
	c1.6,0,2.4-0.8,2.4-2.4l3.2-20c0-1.6,1.6-3.2,4-3.2h8.8c18.4,0,28.8-8.8,31.2-26.4c1.6-7.2,0-13.6-3.2-17.6
	C405.6,223.6,398.4,221.2,389.6,221.2 M392.8,247.6c-1.6,9.6-8.8,9.6-16,9.6H372l3.2-18.4c0-0.8,0.8-1.6,2.4-1.6h1.6
	c4.8,0,9.6,0,12,3.2C392.8,241.2,392.8,243.6,392.8,247.6"/>
</svg>
